<svg t="1756776720961" class="icon" viewBox="0 0 1024 1024" version="1.1" fill="currentColor" xmlns="http://www.w3.org/2000/svg" p-id="6279"
    width="200" height="200">
    <path
        d="M512 1022.774557a503.606557 503.606557 0 1 1 503.606557-503.606557 504.160525 504.160525 0 0 1-503.606557 503.606557z m0-923.278688a419.672131 419.672131 0 1 0 419.672131 419.672131 420.142164 420.142164 0 0 0-419.672131-419.672131z"
        p-id="6280"></path>
    <path
        d="M563.46859 590.764066V279.619148a51.46859 51.46859 0 0 0-102.93718 0v311.144918a51.46859 51.46859 0 0 0 102.920393 0zM460.53141 758.716852a51.46859 51.46859 0 1 0 102.93718 0 51.46859 51.46859 0 0 0-102.93718 0z"
        p-id="6281"></path>
</svg>