<svg t="1756719485074" class="icon" viewBox="0 0 1024 1024" fill="currentColor" version="1.1" xmlns="http://www.w3.org/2000/svg" p-id="964"
    width="200" height="200">
    <path
        d="M64 864a96 96 0 0 1 81.088-94.848l39.872-103.68a256 256 0 1 1 331.456-381.568l61.632-34.24a156.992 156.992 0 0 1-2.048-25.6 160 160 0 1 1 45.376 111.424l-58.176 32a257.088 257.088 0 0 1-1.728 165.44l136.448 79.488a160 160 0 1 1-52.16 80.896l-132.672-77.44A255.232 255.232 0 0 1 320 704a259.392 259.392 0 0 1-45.504-3.968l-39.872 103.68a96 96 0 1 1-170.688 60.352z m672-128a64 64 0 1 0 64-64 64 64 0 0 0-64 64z m-64-512a64 64 0 1 0 64-64 64 64 0 0 0-64 64z" p-id="965"></path>
</svg>